<?xml version="1.0" encoding="utf-8"?><svg version="1.1"
	 id="svg8" xmlns:cc="http://creativecommons.org/ns#" xmlns:svg="http://www.w3.org/2000/svg" xmlns="http://www.w3.org/2000/svg" xmlns:xlink="http://www.w3.org/1999/xlink" x="0px" y="0px" viewBox="0 0 10077.8 8111.7"
	 style="enable-background:new 0 0 10077.8 8111.7;" xml:space="preserve"><style type="text/css">.st0{fill:#EA4335;}.st1{fill:#4285F4;}.st2{fill:#34A853;}.st3{fill:#FBBC05;}</style><g><path class="st0" d="M6394.8,2233.4h307.3l875.9-875.9l43-372C5990.7-453.7,3502.6-298.3,2063.5,1332
		c-399.9,452.5-689.6,991.5-848.1,1574.7c97.4-39.9,205.7-46.6,307.3-18.1l1751.9-289.2c0,0,88.9-147.6,135.5-138.5
		c779.2-856,2090.7-955.8,2990.8-227.5H6394.8z"/><path class="st1" d="M8826.1,2906.7C8624.6,2165,8211.5,1498.4,7636.8,989.1L6407.5,2218.3c519,424.1,814.8,1063.5,802.1,1733.7
		v218.4c604.3,0,1094.3,490,1094.3,1094.3s-490,1094.3-1094.3,1094.3H5021l-218.4,221.4v1312.7l218.4,218.4h2188.7
		c1571.6,12.1,2855.9-1252.2,2868-2823.8C10085,4333.1,9614.9,3440.3,8826.1,2906.7z"/><path class="st2" d="M2829.3,8097.7H5018V6345.8H2829.3c-156.1,0-309.7-33.9-451.9-98.6l-307.3,95.6l-882,875.9l-76.8,307.3
		C1605.6,7899.8,2209.3,8100.7,2829.3,8097.7z"/><path class="st3" d="M2829.3,2414.9C1257.1,2424-9,3705.8,0,5278.1c5.4,877.8,415,1704.1,1111.3,2238.9l1269.2-1269.2
		c-550.5-248.6-795.5-897.1-546.9-1447.6s897.1-795.5,1447.6-546.9c242.6,109.5,436.8,304.3,546.9,546.9L5097.2,3531
		C4557.6,2824.4,3718,2411.3,2829.3,2414.9z"/></g></svg>
